<svg id="Ebene_1" data-name="Ebene 1" xmlns="http://www.w3.org/2000/svg" viewBox="0 0 224.84 64">
    <defs>
        <style>
            .cls-1 {
                fill: #ff5000;
            }

            .cls-2 {
                fill: #fff;
            }
        </style>
    </defs>
    <title>perspective_daily_logo</title>
    <polygon class="cls-1" points="53 64 0 58.13 0 5.87 53 0 53 64" />
    <path class="cls-2" d="M81.36,17.63V23a8.92,8.92,0,1,1,0,17.83V46.2A14.28,14.28,0,0,0,81.36,17.63Z"
        transform="translate(-51 0.08)" />
    <path class="cls-2"
        d="M65.42,17.74H60.09V46.1h5.33v-23a8.86,8.86,0,0,1,8.85,8.85H79.6A14.18,14.18,0,0,0,65.42,17.74Z"
        transform="translate(-51 0.08)" />
    <path class="cls-2"
        d="M133.61,11.56a6.35,6.35,0,0,1,2,5.12q0,3.45-2,5t-6.14,1.6h-2.48v5.2h-4.16V9.89h6.58Q131.65,9.89,133.61,11.56Zm-3.05,7.33a3.59,3.59,0,0,0,.75-2.45,2.6,2.6,0,0,0-1-2.29,5.33,5.33,0,0,0-3-.68h-2.37v6.26h2.8A3.71,3.71,0,0,0,130.56,18.89Z"
        transform="translate(-51 0.08)" />
    <path class="cls-2"
        d="M150.16,26.44a8,8,0,0,1-5.69,2.29,7.55,7.55,0,0,1-5.4-2,7.07,7.07,0,0,1-2.13-5.4,7,7,0,0,1,2.17-5.38,7.32,7.32,0,0,1,5.13-2,7.42,7.42,0,0,1,5,1.79,6.14,6.14,0,0,1,2.07,4.9v2.13H140.88a2.84,2.84,0,0,0,1.23,1.92,3.91,3.91,0,0,0,2.34.74A4.6,4.6,0,0,0,147.92,24Zm-3.84-8.53a3,3,0,0,0-2-.66,3.64,3.64,0,0,0-2.19.7,2.84,2.84,0,0,0-1.13,2h6.32A3,3,0,0,0,146.32,17.9Z"
        transform="translate(-51 0.08)" />
    <path class="cls-2"
        d="M207.6,26.44a8,8,0,0,1-5.69,2.29,7.55,7.55,0,0,1-5.4-2,7.07,7.07,0,0,1-2.13-5.4,7,7,0,0,1,2.17-5.38,7.32,7.32,0,0,1,5.13-2,7.42,7.42,0,0,1,5,1.79,6.14,6.14,0,0,1,2.07,4.9v2.13H198.33a2.84,2.84,0,0,0,1.23,1.92,3.91,3.91,0,0,0,2.34.74A4.59,4.59,0,0,0,205.36,24Zm-3.83-8.53a3,3,0,0,0-2-.66,3.64,3.64,0,0,0-2.19.7,2.85,2.85,0,0,0-1.13,2h6.32A3,3,0,0,0,203.77,17.9Z"
        transform="translate(-51 0.08)" />
    <path class="cls-2"
        d="M274.66,26.44A8,8,0,0,1,269,28.73a7.55,7.55,0,0,1-5.39-2,7.06,7.06,0,0,1-2.13-5.4,7,7,0,0,1,2.17-5.38,7.32,7.32,0,0,1,5.13-2,7.41,7.41,0,0,1,5,1.79,6.14,6.14,0,0,1,2.07,4.9v2.13H265.39a2.85,2.85,0,0,0,1.22,1.92,3.92,3.92,0,0,0,2.34.74A4.59,4.59,0,0,0,272.43,24Zm-3.84-8.53a3,3,0,0,0-2-.66,3.64,3.64,0,0,0-2.19.7,2.84,2.84,0,0,0-1.13,2h6.32A3,3,0,0,0,270.83,17.9Z"
        transform="translate(-51 0.08)" />
    <path class="cls-2"
        d="M161.52,17.7A3,3,0,0,0,158.86,19a5.75,5.75,0,0,0-.88,3.34v6.21h-4V14.18h4v1.89a6.76,6.76,0,0,1,1.93-1.49,5.25,5.25,0,0,1,2.36-.64l0,3.76h-0.77Z"
        transform="translate(-51 0.08)" />
    <path class="cls-2"
        d="M175.16,24.06a4.17,4.17,0,0,1-1.56,3.4,6,6,0,0,1-4,1.28,10.62,10.62,0,0,1-3.33-.57,9.81,9.81,0,0,1-3.12-1.69L165,24a7.66,7.66,0,0,0,4.77,1.73,2.15,2.15,0,0,0,1.23-.31,0.93,0.93,0,0,0,.45-0.81,1.17,1.17,0,0,0-.63-0.93,6.9,6.9,0,0,0-1.81-.8q-1.19-.38-1.81-0.64a10,10,0,0,1-1.43-.77,3.31,3.31,0,0,1-1.63-3,3.94,3.94,0,0,1,1.6-3.24,6.5,6.5,0,0,1,4.13-1.25,9,9,0,0,1,5.06,1.71l-1.49,2.66A6.55,6.55,0,0,0,169.69,17q-1.85,0-1.85,1a1,1,0,0,0,.59.88,11.61,11.61,0,0,0,1.95.75c0.91,0.29,1.55.5,1.93,0.65a9.73,9.73,0,0,1,1.37.71A3.26,3.26,0,0,1,175.16,24.06Z"
        transform="translate(-51 0.08)" />
    <path class="cls-2"
        d="M186.11,13.94A6,6,0,0,1,190.57,16a7.4,7.4,0,0,1,2,5.26,7.54,7.54,0,0,1-2,5.3A6,6,0,0,1,186,28.73a5,5,0,0,1-4.22-2.1v7.06h-4V14.18h4v1.6A5.94,5.94,0,0,1,186.11,13.94Zm-4.4,7.42a4.15,4.15,0,0,0,1,2.85A3,3,0,0,0,185,25.32a3.23,3.23,0,0,0,2.42-1.11,4,4,0,0,0,1-2.84,4.3,4.3,0,0,0-1-2.91,3.11,3.11,0,0,0-2.42-1.17,3,3,0,0,0-2.39,1.16A4.36,4.36,0,0,0,181.72,21.36Z"
        transform="translate(-51 0.08)" />
    <path class="cls-2"
        d="M218.79,25.19a4.58,4.58,0,0,0,3.6-2l2.37,2.67a8.24,8.24,0,0,1-6,2.88,7.78,7.78,0,0,1-5.45-2,6.89,6.89,0,0,1-2.22-5.33A6.93,6.93,0,0,1,213.34,16a7.63,7.63,0,0,1,5.34-2.07,8.35,8.35,0,0,1,3.13.64,7.9,7.9,0,0,1,2.78,1.89l-2.08,2.72a4.94,4.94,0,0,0-3.68-1.73,3.89,3.89,0,0,0-2.7,1A3.65,3.65,0,0,0,215,21.34a3.6,3.6,0,0,0,1.13,2.84A3.84,3.84,0,0,0,218.79,25.19Z"
        transform="translate(-51 0.08)" />
    <path class="cls-2"
        d="M232.27,17.06v6.42a1.85,1.85,0,0,0,.43,1.29,1.33,1.33,0,0,0,1,.47,2.31,2.31,0,0,0,1.89-1l1.49,2.8a5.77,5.77,0,0,1-3.93,1.7,4.77,4.77,0,0,1-4.92-5.06V17.06h-1.68V14.18h1.68V9.89h4v4.29h3.46v2.88h-3.46Z"
        transform="translate(-51 0.08)" />
    <path class="cls-2"
        d="M239.64,11.93a2.38,2.38,0,0,1,0-3.33,2.35,2.35,0,0,1,4,1.66A2.36,2.36,0,0,1,239.64,11.93Zm3.66,16.59h-4V14.18h4V28.52Z"
        transform="translate(-51 0.08)" />
    <path class="cls-2" d="M251,28.52l-5.68-14.36h4.16l3.57,9,3.57-9h4.16l-5.67,14.36H251Z"
        transform="translate(-51 0.08)" />
    <path class="cls-2"
        d="M155.79,37.7a2.38,2.38,0,1,1,1.67.68A2.27,2.27,0,0,1,155.79,37.7Zm3.66,16.58h-4V39.95h4V54.28Z"
        transform="translate(-51 0.08)" />
    <path class="cls-2"
        d="M135,38.1a8.73,8.73,0,0,1,2.66,6.78,9.15,9.15,0,0,1-2.6,6.87q-2.6,2.53-7.93,2.53h-6.37V35.66h6.58Q132.35,35.66,135,38.1ZM132,49.17A5.47,5.47,0,0,0,133.49,45,5.6,5.6,0,0,0,132,40.76a6.55,6.55,0,0,0-4.7-1.48h-2.32V50.61h2.64A6.16,6.16,0,0,0,132,49.17Z"
        transform="translate(-51 0.08)" />
    <path class="cls-2"
        d="M152.18,54.28h-3.76V52.55a4.71,4.71,0,0,1-3.82,1.94,5.68,5.68,0,0,1-3.82-1.32,4.39,4.39,0,0,1-1.55-3.52,3.72,3.72,0,0,1,1.6-3.29,7.67,7.67,0,0,1,4.37-1.09h3V45.2q0-2.29-2.43-2.29a6.58,6.58,0,0,0-2.2.41,7.15,7.15,0,0,0-2,1l-1.78-2.58a10.69,10.69,0,0,1,6.45-2.05A6.67,6.67,0,0,1,150.53,41a4.94,4.94,0,0,1,1.65,4.13v9.14Zm-4-5.46V48.13h-2.5c-1.6,0-2.43.5-2.43,1.49a1.42,1.42,0,0,0,.6,1.2,2.82,2.82,0,0,0,1.65.41,2.91,2.91,0,0,0,1.88-.65A2.14,2.14,0,0,0,148.16,48.82Z"
        transform="translate(-51 0.08)" />
    <path class="cls-2" d="M167.54,54.28h-4V34.51h4V54.28Z" transform="translate(-51 0.08)" />
    <path class="cls-2"
        d="M173.88,59.93a5.82,5.82,0,0,1-4-1.71l1.81-3a3,3,0,0,0,2.08,1,1.17,1.17,0,0,0,1-.55,1.93,1.93,0,0,0,.4-1.16q0-.61-5.54-14.6h4.26l3.49,8.93,3.49-8.93h4.26l-6.66,16.89a4.74,4.74,0,0,1-1.82,2.28A4.92,4.92,0,0,1,173.88,59.93Z"
        transform="translate(-51 0.08)" />
</svg>
