<?xml version="1.0" encoding="utf-8"?>
<!-- Generator: Adobe Illustrator 27.5.0, SVG Export Plug-In . SVG Version: 6.00 Build 0)  -->
<svg version="1.1" id="Layer_1" xmlns="http://www.w3.org/2000/svg" xmlns:xlink="http://www.w3.org/1999/xlink" x="0px" y="0px"
	 viewBox="0 0 811 279" enable-background="new 0 0 811 279" xml:space="preserve">
<g>
	<path fill="#FFFFFF" d="M231.669,106.142c-3.894,0-7.276-0.729-10.147-2.189c-2.872-1.46-5.086-3.479-6.643-6.06
		c-1.558-2.579-2.336-5.548-2.336-8.905V71.54c0-4.136,0.839-7.58,2.519-10.33c1.679-2.748,3.99-4.805,6.935-6.168
		c2.944-1.362,6.314-2.044,10.11-2.044s7.093,0.633,9.892,1.897c2.798,1.267,4.964,3.092,6.497,5.476
		c1.533,2.385,2.299,5.231,2.299,8.541h-9.49c0-2.044-0.706-3.82-2.117-5.329c-1.412-1.508-3.772-2.263-7.081-2.263
		c-3.261,0-5.779,0.852-7.555,2.555c-1.777,1.704-2.665,4.063-2.665,7.081v5.256h1.314c0.827-0.973,2.092-1.898,3.796-2.774
		c1.703-0.876,4.185-1.313,7.446-1.313c2.968,0,5.706,0.633,8.213,1.897c2.506,1.267,4.537,3.103,6.095,5.512
		c1.557,2.409,2.336,5.317,2.336,8.724v0.876c0,3.358-0.803,6.314-2.409,8.869c-1.606,2.556-3.869,4.552-6.789,5.986
		S235.562,106.142,231.669,106.142z M231.815,97.82c3.066,0,5.486-0.804,7.264-2.409c1.776-1.606,2.665-3.747,2.665-6.424v-0.584
		c0-1.801-0.401-3.358-1.205-4.673c-0.803-1.313-1.947-2.336-3.431-3.065c-1.485-0.73-3.249-1.095-5.292-1.095
		c-1.996,0-3.748,0.364-5.256,1.095c-1.509,0.729-2.665,1.752-3.467,3.065c-0.803,1.314-1.205,2.872-1.205,4.673v0.584
		c0,2.677,0.887,4.817,2.665,6.424C226.328,97.017,228.75,97.82,231.815,97.82z"/>
	<path fill="#FFFFFF" d="M258.971,90.666v-8.322h21.608v8.322H258.971z"/>
	<path fill="#FFFFFF" d="M291.895,105.12v-1.898c0-1.897,0.146-3.516,0.438-4.854c0.292-1.338,0.924-2.858,1.898-4.562
		l17.154-30.295v-1.168H284.23V54.02h36.792v11.097l-18.104,32.339c-0.633,1.12-1.071,2.117-1.313,2.993
		c-0.244,0.876-0.365,1.946-0.365,3.212v1.46H291.895z"/>
	<path fill="#FFFFFF" d="M360.806,106.142c-5.256,0-9.43-1.435-12.52-4.307c-3.091-2.871-4.636-6.886-4.636-12.045v-4.818h9.636
		v4.818c0,2.288,0.632,4.076,1.898,5.365c1.265,1.29,3.041,1.935,5.329,1.935c2.141,0,3.808-0.632,5-1.898
		c1.192-1.265,1.789-3.065,1.789-5.401V62.78h-8.761V54.02h24.236v8.761h-5.84v27.01c0,5.305-1.437,9.356-4.307,12.154
		C369.76,104.743,365.818,106.142,360.806,106.142z"/>
	<path fill="#FFFFFF" d="M402.269,105.704c-2.823,0-5.293-0.645-7.41-1.935c-2.116-1.289-3.759-3.077-4.927-5.365
		c-1.168-2.287-1.752-4.915-1.752-7.885V68.912h9.197V89.79c0,2.726,0.669,4.77,2.008,6.132c1.338,1.363,3.249,2.044,5.73,2.044
		c2.822,0,5.012-0.937,6.57-2.811c1.557-1.873,2.336-4.489,2.336-7.848V68.912h9.198v36.208h-9.053v-4.745h-1.313
		c-0.584,1.217-1.679,2.409-3.285,3.577S405.529,105.704,402.269,105.704z"/>
	<path fill="#FFFFFF" d="M433.44,105.12V54.02h9.198v51.101H433.44z"/>
	<path fill="#FFFFFF" d="M457.456,64.678c-1.655,0-3.055-0.535-4.197-1.605c-1.145-1.07-1.716-2.482-1.716-4.234
		s0.571-3.163,1.716-4.234c1.143-1.069,2.542-1.605,4.197-1.605c1.703,0,3.114,0.536,4.234,1.605
		c1.118,1.071,1.679,2.482,1.679,4.234s-0.561,3.164-1.679,4.234C460.57,64.143,459.159,64.678,457.456,64.678z M452.857,105.12
		V68.912h9.197v36.208H452.857z"/>
</g>
<g>
	<path fill="#FFFFFF" d="M418.568,141.626c-1.655,0-3.055-0.535-4.197-1.605c-1.144-1.07-1.716-2.482-1.716-4.235
		c0-1.752,0.572-3.163,1.716-4.234c1.143-1.07,2.542-1.606,4.197-1.606c1.703,0,3.114,0.536,4.234,1.606
		c1.119,1.071,1.679,2.482,1.679,4.234c0,1.752-0.56,3.165-1.679,4.235C421.682,141.091,420.271,141.626,418.568,141.626z
		 M413.969,182.068V145.86h9.198v36.208H413.969z"/>
	<path fill="#FFFFFF" d="M433.387,182.068V145.86h9.052v3.941h1.314c0.632-1.216,1.679-2.274,3.139-3.175s3.382-1.351,5.767-1.351
		c2.579,0,4.647,0.499,6.205,1.496c1.558,0.998,2.749,2.3,3.577,3.905h1.314c0.827-1.557,1.995-2.847,3.504-3.868
		c1.508-1.022,3.649-1.533,6.424-1.533c2.237,0,4.271,0.475,6.096,1.423c1.824,0.949,3.284,2.386,4.38,4.308
		c1.095,1.923,1.643,4.344,1.643,7.264v23.798h-9.198v-23.142c0-1.994-0.511-3.491-1.533-4.489
		c-1.021-0.997-2.458-1.496-4.308-1.496c-2.092,0-3.711,0.669-4.854,2.007c-1.145,1.34-1.716,3.249-1.716,5.73v21.39h-9.198v-23.142
		c0-1.994-0.511-3.491-1.532-4.489c-1.022-0.997-2.458-1.496-4.308-1.496c-2.093,0-3.711,0.669-4.854,2.007
		c-1.144,1.34-1.715,3.249-1.715,5.73v21.39H433.387z"/>
	<path fill="#FFFFFF" d="M528.14,182.068c-2.386,0-4.32-0.741-5.804-2.227c-1.485-1.484-2.227-3.468-2.227-5.949v-20.44h-9.052
		v-7.592h9.052v-11.243h9.198v11.243h9.928v7.592h-9.928v18.834c0,1.46,0.681,2.19,2.044,2.19h7.008v7.592H528.14z"/>
	<path fill="#FFFFFF" d="M558.798,183.09c-2.58,0-4.891-0.45-6.935-1.351c-2.044-0.899-3.662-2.214-4.854-3.941
		c-1.193-1.728-1.788-3.833-1.788-6.314c0-2.482,0.595-4.562,1.788-6.242c1.192-1.679,2.847-2.943,4.964-3.796
		c2.117-0.851,4.537-1.277,7.264-1.277h9.928v-2.044c0-1.703-0.536-3.103-1.605-4.197c-1.071-1.095-2.774-1.643-5.11-1.643
		c-2.288,0-3.991,0.523-5.11,1.569c-1.12,1.047-1.85,2.397-2.189,4.052l-8.468-2.847c0.584-1.85,1.521-3.541,2.811-5.074
		c1.288-1.533,3.017-2.773,5.183-3.723c2.165-0.949,4.806-1.424,7.921-1.424c4.769,0,8.541,1.193,11.314,3.577
		c2.774,2.385,4.161,5.84,4.161,10.366v13.505c0,1.46,0.681,2.19,2.044,2.19h2.92v7.592h-6.132c-1.801,0-3.285-0.438-4.453-1.314
		s-1.752-2.044-1.752-3.504v-0.073h-1.387c-0.195,0.584-0.633,1.351-1.314,2.3s-1.752,1.788-3.212,2.519
		S561.328,183.09,558.798,183.09z M560.404,175.645c2.579,0,4.684-0.718,6.314-2.154c1.63-1.435,2.445-3.345,2.445-5.73v-0.729
		h-9.271c-1.704,0-3.042,0.365-4.016,1.095c-0.974,0.73-1.46,1.752-1.46,3.066c0,1.313,0.512,2.385,1.533,3.212
		C556.974,175.231,558.457,175.645,560.404,175.645z"/>
	<path fill="#FFFFFF" d="M588.436,182.068v-10.95l19.856-16.498v-1.168h-19.126v-7.592h29.199v10.95l-19.855,16.498v1.168h20.439
		v7.592H588.436z"/>
	<path fill="#FFFFFF" d="M645.813,182.068v-51.101h9.636v21.098h18.979v-21.098h9.637v51.101h-9.637v-21.243h-18.979v21.243H645.813
		z"/>
	<path fill="#FFFFFF" d="M705.234,183.09c-2.58,0-4.891-0.45-6.935-1.351c-2.044-0.899-3.662-2.214-4.854-3.941
		c-1.193-1.728-1.788-3.833-1.788-6.314c0-2.482,0.595-4.562,1.788-6.242c1.192-1.679,2.847-2.943,4.964-3.796
		c2.117-0.851,4.537-1.277,7.264-1.277h9.928v-2.044c0-1.703-0.536-3.103-1.605-4.197c-1.071-1.095-2.774-1.643-5.11-1.643
		c-2.288,0-3.991,0.523-5.11,1.569c-1.12,1.047-1.85,2.397-2.189,4.052l-8.468-2.847c0.584-1.85,1.521-3.541,2.811-5.074
		c1.288-1.533,3.017-2.773,5.183-3.723c2.165-0.949,4.806-1.424,7.921-1.424c4.769,0,8.541,1.193,11.314,3.577
		c2.774,2.385,4.161,5.84,4.161,10.366v13.505c0,1.46,0.681,2.19,2.044,2.19h2.92v7.592h-6.132c-1.801,0-3.285-0.438-4.453-1.314
		s-1.752-2.044-1.752-3.504v-0.073h-1.387c-0.195,0.584-0.633,1.351-1.314,2.3s-1.752,1.788-3.212,2.519
		S707.765,183.09,705.234,183.09z M706.841,175.645c2.579,0,4.684-0.718,6.314-2.154c1.63-1.435,2.445-3.345,2.445-5.73v-0.729
		h-9.271c-1.704,0-3.042,0.365-4.016,1.095c-0.974,0.73-1.46,1.752-1.46,3.066c0,1.313,0.512,2.385,1.533,3.212
		C703.41,175.231,704.894,175.645,706.841,175.645z"/>
	<path fill="#FFFFFF" d="M748.962,182.652c-2.823,0-5.293-0.645-7.41-1.935c-2.116-1.289-3.759-3.077-4.927-5.365
		c-1.168-2.287-1.752-4.915-1.752-7.885V145.86h9.197v20.878c0,2.726,0.669,4.77,2.008,6.132c1.338,1.363,3.249,2.044,5.73,2.044
		c2.822,0,5.012-0.937,6.57-2.811c1.557-1.873,2.336-4.489,2.336-7.848V145.86h9.198v36.208h-9.053v-4.745h-1.313
		c-0.584,1.217-1.679,2.409-3.285,3.577S752.222,182.652,748.962,182.652z"/>
	<path fill="#FFFFFF" d="M795.171,183.09c-4.722,0-8.591-1.021-11.607-3.065c-3.019-2.044-4.843-4.964-5.475-8.761l8.468-2.189
		c0.34,1.704,0.912,3.042,1.715,4.015c0.804,0.975,1.801,1.668,2.993,2.081c1.192,0.414,2.494,0.62,3.906,0.62
		c2.141,0,3.723-0.376,4.744-1.132c1.022-0.754,1.533-1.69,1.533-2.811c0-1.118-0.487-1.982-1.46-2.591
		c-0.974-0.608-2.531-1.106-4.672-1.497l-2.044-0.364c-2.531-0.486-4.843-1.156-6.935-2.008c-2.094-0.851-3.772-2.031-5.037-3.541
		c-1.267-1.508-1.898-3.454-1.898-5.84c0-3.601,1.314-6.362,3.942-8.285c2.628-1.922,6.083-2.884,10.366-2.884
		c4.038,0,7.396,0.901,10.073,2.701c2.676,1.801,4.428,4.161,5.256,7.081l-8.541,2.628c-0.39-1.849-1.18-3.163-2.372-3.942
		c-1.193-0.777-2.664-1.168-4.416-1.168c-1.753,0-3.092,0.305-4.016,0.913c-0.925,0.609-1.387,1.448-1.387,2.519
		c0,1.168,0.485,2.032,1.46,2.591c0.973,0.561,2.287,0.986,3.942,1.278l2.044,0.364c2.725,0.487,5.194,1.132,7.409,1.935
		c2.214,0.804,3.966,1.947,5.256,3.432c1.289,1.484,1.935,3.492,1.935,6.022c0,3.796-1.376,6.729-4.125,8.796
		C803.479,182.057,799.793,183.09,795.171,183.09z"/>
</g>
<rect x="1.882" y="248.631" fill="none" stroke="#FFFFFF" stroke-miterlimit="10" width="29.734" height="28.536"/>
<rect x="623.925" y="66.337" fill="#FFFFFF" width="5.922" height="5.683"/>
<rect x="631.862" y="66.337" fill="#FFFFFF" width="5.922" height="5.683"/>
<rect x="623.925" y="73.619" fill="#FFFFFF" width="5.922" height="5.683"/>
<rect x="623.925" y="103.3" fill="none" stroke="#FFFFFF" stroke-miterlimit="10" width="5.922" height="5.683"/>
<rect x="631.862" y="73.619" fill="#FFFFFF" width="5.922" height="5.683"/>
<rect x="527.348" y="199.767" fill="none" stroke="#FFFFFF" stroke-miterlimit="10" width="5.922" height="5.683"/>
<rect x="519.411" y="207.048" fill="none" stroke="#FFFFFF" stroke-miterlimit="10" width="5.922" height="5.683"/>
<rect x="364.973" y="207.048" fill="none" stroke="#FFFFFF" stroke-miterlimit="10" width="5.922" height="5.683"/>
<rect x="527.348" y="207.048" fill="none" stroke="#FFFFFF" stroke-miterlimit="10" width="5.922" height="5.683"/>
<rect x="639.8" y="91.371" fill="none" stroke="#FFFFFF" stroke-miterlimit="10" width="5.922" height="5.683"/>
<rect x="1.882" y="225.451" fill="none" stroke="#FFFFFF" stroke-miterlimit="10" width="5.922" height="5.683"/>
<rect x="17.757" y="213.522" fill="none" stroke="#FFFFFF" stroke-miterlimit="10" width="5.922" height="5.683"/>
<rect x="96.202" y="199.767" fill="none" stroke="#FFFFFF" stroke-miterlimit="10" width="5.922" height="5.683"/>
<rect x="53.635" y="248.631" fill="#FFFFFF" width="29.734" height="28.536"/>
<rect x="1.882" y="1.099" fill="none" stroke="#FFFFFF" stroke-miterlimit="10" width="29.734" height="28.536"/>
<rect x="53.635" y="1.099" fill="#FFFFFF" width="29.734" height="28.536"/>
<rect x="53.635" y="50.766" fill="#FFFFFF" width="29.734" height="28.536"/>
<rect x="105.388" y="248.631" fill="#FFFFFF" width="29.734" height="28.536"/>
<rect x="105.388" y="1.099" fill="none" stroke="#FFFFFF" stroke-miterlimit="10" width="29.734" height="28.536"/>
<rect x="157.141" y="248.631" fill="none" stroke="#FFFFFF" stroke-miterlimit="10" width="29.734" height="28.536"/>
<rect x="157.141" y="1.099" fill="none" stroke="#FFFFFF" stroke-miterlimit="10" width="29.734" height="28.536"/>
<rect x="208.893" y="248.631" fill="none" stroke="#FFFFFF" stroke-miterlimit="10" width="29.734" height="28.536"/>
<rect x="208.893" y="1.099" fill="#FFFFFF" width="29.734" height="28.536"/>
<rect x="260.646" y="248.631" fill="#FFFFFF" width="29.734" height="28.536"/>
<rect x="260.646" y="1.099" fill="none" stroke="#FFFFFF" stroke-miterlimit="10" width="29.734" height="28.536"/>
<rect x="312.399" y="248.631" fill="none" stroke="#FFFFFF" stroke-miterlimit="10" width="29.734" height="28.536"/>
<rect x="312.399" y="1.099" fill="#FFFFFF" width="12.45" height="11.948"/>
<rect x="122.672" y="130.968" fill="none" stroke="#FFFFFF" stroke-miterlimit="10" width="12.45" height="11.948"/>
<rect x="210.566" y="166.687" fill="none" stroke="#FFFFFF" stroke-miterlimit="10" width="12.45" height="11.948"/>
<rect x="519.411" y="90.267" fill="none" stroke="#FFFFFF" stroke-miterlimit="10" width="12.45" height="11.948"/>
<rect x="743.706" y="90.267" fill="none" stroke="#FFFFFF" stroke-miterlimit="10" width="12.45" height="11.948"/>
<rect x="364.973" y="216.354" fill="none" stroke="#FFFFFF" stroke-miterlimit="10" width="12.45" height="11.948"/>
<rect x="743.706" y="119.629" fill="none" stroke="#FFFFFF" stroke-miterlimit="10" width="12.45" height="11.948"/>
<rect x="277.93" y="150.1" fill="#FFFFFF" width="12.45" height="11.948"/>
<rect x="244.248" y="150.1" fill="none" stroke="#FFFFFF" stroke-miterlimit="10" width="12.45" height="11.948"/>
<rect x="277.93" y="166.687" fill="#FFFFFF" width="12.45" height="11.948"/>
<rect x="312.399" y="150.1" fill="#FFFFFF" width="29.734" height="78.203"/>
<rect x="364.152" y="248.631" fill="none" stroke="#FFFFFF" stroke-miterlimit="10" width="29.734" height="28.536"/>
<rect x="364.152" y="1.099" fill="none" stroke="#FFFFFF" stroke-miterlimit="10" width="29.734" height="28.536"/>
<rect x="415.905" y="248.631" fill="#FFFFFF" width="29.734" height="28.536"/>
<rect x="415.905" y="1.099" fill="#FFFFFF" width="29.734" height="28.536"/>
<rect x="467.658" y="248.631" fill="#FFFFFF" width="29.734" height="28.536"/>
<rect x="467.658" y="1.099" fill="#FFFFFF" width="29.734" height="28.536"/>
<rect x="519.411" y="248.631" fill="#FFFFFF" width="29.734" height="28.536"/>
<rect x="519.411" y="1.099" fill="none" stroke="#FFFFFF" stroke-miterlimit="10" width="81.487" height="78.203"/>
<rect x="571.164" y="248.631" fill="none" stroke="#FFFFFF" stroke-miterlimit="10" width="29.734" height="28.536"/>
<rect x="622.916" y="248.631" fill="none" stroke="#FFFFFF" stroke-miterlimit="10" width="29.734" height="28.536"/>
<rect x="622.916" y="1.099" fill="none" stroke="#FFFFFF" stroke-miterlimit="10" width="29.734" height="28.536"/>
<rect x="674.669" y="248.631" fill="#FFFFFF" width="29.734" height="28.536"/>
<rect x="674.669" y="1.099" fill="none" stroke="#FFFFFF" stroke-miterlimit="10" width="29.734" height="28.536"/>
<rect x="726.422" y="248.631" fill="#FFFFFF" width="29.734" height="28.536"/>
<rect x="726.422" y="1.099" fill="none" stroke="#FFFFFF" stroke-miterlimit="10" width="29.734" height="78.203"/>
<rect x="778.175" y="248.631" fill="none" stroke="#FFFFFF" stroke-miterlimit="10" width="29.734" height="28.536"/>
<rect x="778.175" y="1.099" fill="#FFFFFF" width="29.734" height="28.536"/>
<rect x="53.635" y="131.577" fill="#FFFFFF" width="29.734" height="28.536"/>
<rect x="105.388" y="91.874" fill="#FFFFFF" width="29.734" height="28.536"/>
<rect x="157.141" y="50.766" fill="none" stroke="#FFFFFF" stroke-miterlimit="10" width="29.734" height="28.536"/>
<rect x="778.175" y="50.766" fill="#FFFFFF" width="29.734" height="28.536"/>
<rect x="778.175" y="100.433" fill="none" stroke="#FFFFFF" stroke-miterlimit="10" width="29.734" height="28.536"/>
<rect x="157.141" y="150.1" fill="none" stroke="#FFFFFF" stroke-miterlimit="10" width="29.734" height="28.536"/>
<rect x="53.635" y="199.767" fill="none" stroke="#FFFFFF" stroke-miterlimit="10" width="29.734" height="28.536"/>
<rect x="157.141" y="199.767" fill="none" stroke="#FFFFFF" stroke-miterlimit="10" width="29.734" height="28.536"/>
<rect x="208.893" y="199.767" fill="#FFFFFF" width="81.487" height="28.536"/>
<rect x="415.905" y="199.767" fill="#FFFFFF" width="29.734" height="28.536"/>
<rect x="467.658" y="199.767" fill="none" stroke="#FFFFFF" stroke-miterlimit="10" width="29.734" height="28.536"/>
<rect x="571.164" y="199.767" fill="none" stroke="#FFFFFF" stroke-miterlimit="10" width="29.734" height="28.536"/>
<rect x="622.916" y="199.767" fill="#FFFFFF" width="29.734" height="28.536"/>
<rect x="674.669" y="199.767" fill="none" stroke="#FFFFFF" stroke-miterlimit="10" width="81.487" height="28.536"/>
<rect x="778.175" y="199.767" fill="none" stroke="#FFFFFF" stroke-miterlimit="10" width="29.734" height="28.536"/>
<g>
</g>
<g>
</g>
<g>
</g>
<g>
</g>
<g>
</g>
<g>
</g>
<g>
</g>
<g>
</g>
<g>
</g>
<g>
</g>
<g>
</g>
<g>
</g>
<g>
</g>
<g>
</g>
<g>
</g>
</svg>
