<?xml version="1.0" encoding="utf-8"?>
<!-- Generator: Adobe Illustrator 27.4.0, SVG Export Plug-In . SVG Version: 6.00 Build 0)  -->
<svg version="1.1" id="Layer_1" xmlns="http://www.w3.org/2000/svg" xmlns:xlink="http://www.w3.org/1999/xlink" x="0px" y="0px"
	 viewBox="0 0 103 29" style="enable-background:new 0 0 103 29;" xml:space="preserve">
<style type="text/css">
	.st0{fill:#FFFFFF;}
</style>
<rect x="11.5" y="51.1" class="st0" width="4.2" height="19.1"/>
<rect x="7.3" y="49.3" class="st0" width="4.2" height="4.3"/>
<rect x="13.2" y="49.3" class="st0" width="8.2" height="1.1"/>
<rect x="13.2" y="56.4" class="st0" width="8.2" height="1.1"/>
<rect x="13.2" y="63.4" class="st0" width="8.2" height="1.1"/>
<rect x="7.3" y="56.4" class="st0" width="4.2" height="4.3"/>
<rect x="7.3" y="63.4" class="st0" width="4.2" height="4.3"/>
<circle class="st0" cx="3.1" cy="45" r="2.4"/>
<circle class="st0" cx="26.4" cy="45" r="2.4"/>
<circle class="st0" cx="13.6" cy="47.5" r="2.4"/>
<rect x="19.2" y="14.1" class="st0" width="1.7" height="12.4"/>
<rect x="15.5" y="20.4" class="st0" width="1.7" height="6.1"/>
<rect x="11.8" y="21.9" class="st0" width="1.7" height="4.6"/>
<rect x="8.1" y="20.8" class="st0" width="1.7" height="5.7"/>
<rect x="8.1" y="7.4" class="st0" width="9.3" height="1.4"/>
<rect x="8.1" y="10.4" class="st0" width="4.5" height="1.4"/>
<rect x="8.1" y="13.4" class="st0" width="4.5" height="1.4"/>
</svg>
