<?xml version="1.0" encoding="utf-8"?>
<!-- Generator: Adobe Illustrator 27.2.0, SVG Export Plug-In . SVG Version: 6.00 Build 0)  -->
<svg version="1.1" id="Layer_1" xmlns="http://www.w3.org/2000/svg" xmlns:xlink="http://www.w3.org/1999/xlink" x="0px" y="0px"
	 viewBox="0 0 103 29" style="enable-background:new 0 0 103 29;" xml:space="preserve">
<style type="text/css">
	.st0{fill:#FFFFFF;}
</style>
<path class="st0" d="M54.2,23.6c-2.2,0-4-0.6-5.3-1.8c-1.3-1.2-2-2.9-2-5.1v-2.1H51v2.1c0,1,0.3,1.7,0.8,2.3
	c0.5,0.5,1.3,0.8,2.3,0.8c0.9,0,1.6-0.3,2.1-0.8c0.5-0.5,0.8-1.3,0.8-2.3V5.2h-3.7V1.4h10.3v3.7h-2.5v11.5c0,2.3-0.6,4-1.8,5.2
	C58,23,56.3,23.6,54.2,23.6z"/>
<path class="st0" d="M66.2,23.2v-2.6c0-1.5,0.2-2.8,0.7-3.8c0.5-1,1.2-1.8,2.2-2.5c0.9-0.7,2.1-1.2,3.5-1.6l2.1-0.7
	c0.8-0.2,1.4-0.6,1.9-0.9c0.5-0.4,0.9-0.8,1.2-1.3c0.3-0.5,0.4-1.1,0.4-1.8V7.9c0-1-0.4-1.9-1.1-2.5c-0.7-0.6-1.7-0.9-2.9-0.9
	c-1.2,0-2.2,0.3-2.9,1c-0.7,0.7-1.1,1.6-1.1,2.8v0.6h-4V8.4c0-1.6,0.4-2.9,1.1-4c0.7-1.1,1.7-1.9,2.9-2.5C71.4,1.3,72.7,1,74.2,1
	c1.5,0,2.8,0.3,4,0.9c1.2,0.6,2.1,1.4,2.8,2.4c0.7,1,1,2.2,1,3.6v0.3c0,1.4-0.3,2.6-0.9,3.5c-0.6,1-1.3,1.8-2.3,2.4
	c-1,0.6-2.1,1.1-3.3,1.5l-2,0.6c-0.9,0.3-1.6,0.6-2.1,0.9c-0.5,0.3-0.8,0.7-1,1.1c-0.2,0.4-0.3,0.8-0.3,1.4v0.1h11.7v3.5H66.2z"/>
<path class="st0" d="M92.8,23.6c-1.6,0-3.1-0.3-4.4-0.9c-1.3-0.6-2.3-1.4-3-2.5c-0.7-1.1-1.1-2.4-1.1-3.9v-0.6h4v0.4
	c0,1.2,0.4,2.1,1.2,2.8c0.8,0.7,1.9,1,3.2,1c1.3,0,2.4-0.3,3.1-1c0.7-0.6,1.1-1.5,1.1-2.4v-0.3c0-0.7-0.2-1.2-0.5-1.6
	c-0.3-0.4-0.8-0.7-1.3-0.9c-0.6-0.2-1.2-0.3-1.9-0.3h-4.4V9.2l7-3.7V5h-11V1.4h15.4v5.3l-6.6,3.5v0.5h1.2c1,0,1.9,0.2,2.8,0.6
	c0.9,0.4,1.7,1,2.3,1.8c0.6,0.8,0.9,1.9,0.9,3.2v0.4c0,1.4-0.3,2.6-1,3.7c-0.7,1-1.6,1.9-2.9,2.4C95.8,23.3,94.4,23.6,92.8,23.6z"/>
<polygon class="st0" points="22.3,23.2 12.9,12.2 21.9,1.4 16.7,1.4 7.9,12.3 16.9,23.2 "/>
<polygon class="st0" points="45.5,23.2 36.1,12.2 45.2,1.4 40,1.4 31.1,12.3 40.1,23.2 "/>
</svg>
